<svg xmlns="http://www.w3.org/2000/svg" xmlns:xlink="http://www.w3.org/1999/xlink" viewBox="0 0 120.81 26.56"><defs><style>.cls-1{fill:#141416;}.cls-2{fill:#24b5b4;}.cls-3{fill:url(#Dégradé_sans_nom_21);}</style><linearGradient id="Dégradé_sans_nom_21" y1="13.28" x2="120.81" y2="13.28" gradientUnits="userSpaceOnUse"><stop offset="0" stop-color="#24b5b4"/><stop offset="1" stop-color="#774594"/></linearGradient></defs><g id="Calque_2" data-name="Calque 2"><g id="Calque_1-2" data-name="Calque 1"><path class="cls-1" d="M19.44.86v25.2H13.68v-10H5.76v10H0V.86H5.76v9.65h7.92V.86Z"/><path class="cls-1" d="M40.61,8.06v18h-5.4V24.37a6.18,6.18,0,0,1-5.15,2.19c-3.64,0-6.73-2.59-6.73-7.45v-11h5.4V18.32a3,3,0,0,0,3.13,3.28c2,0,3.35-1.15,3.35-3.71V8.06Z"/><path class="cls-2" d="M63,8.06v18h-5.4V24.37a6.73,6.73,0,0,1-5.36,2.19c-4.72,0-8.6-4.14-8.6-9.5s3.88-9.5,8.6-9.5a6.77,6.77,0,0,1,5.36,2.19V8.06Zm-5.4,9a4.28,4.28,0,1,0-8.56,0,4.28,4.28,0,1,0,8.56,0Z"/><path class="cls-1" d="M92.55,8.06l-5.76,18h-5l-2.88-9.61L76,26.06H71l-5.76-18H71l2.6,9.65,2.8-9.65h5l2.81,9.65,2.59-9.65Z"/><path class="cls-1" d="M103.14,21.74a4.67,4.67,0,0,0,3.45-1.37l4.32,2.49a9.14,9.14,0,0,1-7.84,3.7c-6.16,0-10-4.14-10-9.5a9.23,9.23,0,0,1,9.58-9.5c5.25,0,9.14,4.07,9.14,9.5a10.7,10.7,0,0,1-.21,2.16H98.82C99.5,21.09,101.16,21.74,103.14,21.74Zm3.31-6.55a4.06,4.06,0,0,0-7.74,0Z"/><path class="cls-1" d="M114.33,3.24a3.24,3.24,0,0,1,6.48,0,3.24,3.24,0,0,1-6.48,0Zm.54,4.82h5.4v18h-5.4Z"/><path class="cls-2" d="M51.88,19.76a.73.73,0,0,1-.63-.33.74.74,0,0,1,.21-1l1.66-1.11V15a.75.75,0,1,1,1.5,0v2.67a.73.73,0,0,1-.33.62l-2,1.34A.78.78,0,0,1,51.88,19.76Z"/><path class="cls-3" d="M19.44.86v25.2H13.68v-10H5.76v10H0V.86H5.76v9.65h7.92V.86Z"/><path class="cls-3" d="M40.61,8.06v18h-5.4V24.37a6.18,6.18,0,0,1-5.15,2.19c-3.64,0-6.73-2.59-6.73-7.45v-11h5.4V18.32a3,3,0,0,0,3.13,3.28c2,0,3.35-1.15,3.35-3.71V8.06Z"/><path class="cls-3" d="M63,8.06v18h-5.4V24.37a6.73,6.73,0,0,1-5.36,2.19c-4.72,0-8.6-4.14-8.6-9.5s3.88-9.5,8.6-9.5a6.77,6.77,0,0,1,5.36,2.19V8.06Zm-5.4,9a4.28,4.28,0,1,0-8.56,0,4.28,4.28,0,1,0,8.56,0Z"/><path class="cls-3" d="M92.55,8.06l-5.76,18h-5l-2.88-9.61L76,26.06H71l-5.76-18H71l2.6,9.65,2.8-9.65h5l2.81,9.65,2.59-9.65Z"/><path class="cls-3" d="M103.14,21.74a4.67,4.67,0,0,0,3.45-1.37l4.32,2.49a9.14,9.14,0,0,1-7.84,3.7c-6.16,0-10-4.14-10-9.5a9.23,9.23,0,0,1,9.58-9.5c5.25,0,9.14,4.07,9.14,9.5a10.7,10.7,0,0,1-.21,2.16H98.82C99.5,21.09,101.16,21.74,103.14,21.74Zm3.31-6.55a4.06,4.06,0,0,0-7.74,0Z"/><path class="cls-3" d="M114.33,3.24a3.24,3.24,0,0,1,6.48,0,3.24,3.24,0,0,1-6.48,0Zm.54,4.82h5.4v18h-5.4Z"/><path class="cls-3" d="M51.88,19.76a.73.73,0,0,1-.63-.33.74.74,0,0,1,.21-1l1.66-1.11V15a.75.75,0,1,1,1.5,0v2.67a.73.73,0,0,1-.33.62l-2,1.34A.78.78,0,0,1,51.88,19.76Z"/></g></g></svg>