<svg xmlns="http://www.w3.org/2000/svg" viewBox="0 0 40.81 37.17"><title>cart</title><g id="Calque_2" data-name="Calque 2"><g id="Calque_1-2" data-name="Calque 1"><path d="M40.46,11.39a1.52,1.52,0,0,0-1.15-.54H33.44L27.62.75A1.5,1.5,0,0,0,25,2.25l5,8.6H10.83l5-8.6a1.5,1.5,0,1,0-2.6-1.5L7.37,10.85H1.5a1.52,1.52,0,0,0-1.15.54A1.53,1.53,0,0,0,0,12.61l1,5.76A1.51,1.51,0,0,0,2.5,19.62h.6L6.52,36A1.51,1.51,0,0,0,8,37.17H32.82A1.5,1.5,0,0,0,34.29,36l3.43-16.35h.59a1.5,1.5,0,0,0,1.48-1.25l1-5.76A1.5,1.5,0,0,0,40.46,11.39Zm-2.93,2.46-.48,2.77H3.76l-.48-2.77ZM31.6,34.17H9.21L6.16,19.61H34.65Z"/></g></g></svg>