<svg width="30" height="34" viewBox="0 0 30 34" fill="none" xmlns="http://www.w3.org/2000/svg">
<path d="M26.9981 12.7851H24.0081V8.50142C24.0081 3.81371 19.9842 0 15.0381 0C10.0921 0 6.0682 3.81371 6.0682 8.50142V12.7851H3.07822C1.92798 12.7851 0.992188 13.672 0.992188 14.7622V31.765C0.992188 32.8551 1.92798 33.7421 3.07822 33.7421H26.9981C28.1483 33.7421 29.0841 32.8551 29.0841 31.765V14.7622C29.0841 13.672 28.1483 12.7851 26.9981 12.7851ZM27.6934 31.765C27.6934 32.1284 27.3815 32.424 26.9981 32.424H3.07822C2.69481 32.424 2.38288 32.1284 2.38288 31.765V14.7622C2.38288 14.3988 2.69481 14.1031 3.07822 14.1031H12.7435C13.1275 14.1031 13.4389 13.8081 13.4389 13.4441C13.4389 13.0801 13.1275 12.7851 12.7435 12.7851H10.2403V8.50142C10.2403 6.6717 11.3916 5.02717 13.1733 4.31167C13.5269 4.16972 13.6921 3.78293 13.5423 3.44775C13.3925 3.11264 12.9846 2.95599 12.6308 3.09808C10.3338 4.02045 8.84958 6.14139 8.84958 8.50142V12.7851H7.45889V8.50142C7.45889 4.54048 10.8589 1.31805 15.0381 1.31805C19.2174 1.31805 22.6174 4.54048 22.6174 8.50142V12.7851H21.2267V8.50142C21.2267 6.19543 19.7894 4.09386 17.5652 3.1475C17.2148 2.99863 16.8033 3.14678 16.646 3.47886C16.4887 3.81094 16.6452 4.20095 16.9955 4.34996C18.7211 5.08411 19.836 6.71362 19.836 8.50142V12.7851H17.5761C17.1921 12.7851 16.8807 13.0801 16.8807 13.4441C16.8807 13.8081 17.1921 14.1031 17.5761 14.1031H26.9981C27.3815 14.1031 27.6934 14.3988 27.6934 14.7622V31.765Z" fill="black"/>
<path d="M16.7044 22.5277C17.3113 22.0311 17.6633 21.312 17.6633 20.5366C17.6633 19.0839 16.4163 17.902 14.8834 17.902C13.3506 17.902 12.1035 19.0839 12.1035 20.5366C12.1035 21.3211 12.4789 22.0649 13.1057 22.5612L12.6669 26.4927C12.6471 26.6696 12.7075 26.8461 12.8331 26.9783C12.9586 27.1105 13.1375 27.186 13.3252 27.186H16.4886C16.6763 27.186 16.8551 27.1105 16.9807 26.9783C17.1062 26.8461 17.1667 26.6696 17.1469 26.4927L16.7044 22.5277ZM15.6548 21.7069C15.4407 21.8342 15.3216 22.0661 15.3482 22.3044L15.7529 25.9314H14.0606L14.4625 22.3298C14.4897 22.086 14.3646 21.8495 14.1421 21.7244C13.6945 21.4727 13.4273 21.0286 13.4273 20.5366C13.4273 19.7757 14.0805 19.1566 14.8834 19.1566C15.6864 19.1566 16.3396 19.7757 16.3396 20.5366C16.3396 21.0147 16.0836 21.4522 15.6548 21.7069Z" fill="black"/>
</svg>
