<svg width="53" height="35" viewBox="0 0 53 35" fill="none" xmlns="http://www.w3.org/2000/svg">
<path d="M12.6575 24.2927C9.75766 24.2927 7.39941 26.6209 7.39941 29.4838C7.39941 32.3466 9.75766 34.6748 12.6575 34.6748C15.5574 34.6748 17.9156 32.3466 17.9156 29.4838C17.9156 26.6209 15.5573 24.2927 12.6575 24.2927ZM12.6575 32.9444C10.7242 32.9444 9.15215 31.3923 9.15215 29.4838C9.15215 27.5751 10.7244 26.0231 12.6575 26.0231C14.5907 26.0231 16.1629 27.5752 16.1629 29.4838C16.1629 31.3923 14.5907 32.9444 12.6575 32.9444Z" fill="black"/>
<path d="M42.4534 24.2927C39.5536 24.2927 37.1953 26.6209 37.1953 29.4838C37.1953 32.3466 39.5536 34.6748 42.4534 34.6748C45.3533 34.6748 47.7115 32.3466 47.7115 29.4838C47.7115 26.6209 45.3533 24.2927 42.4534 24.2927ZM42.4534 32.9444C40.5201 32.9444 38.9481 31.3923 38.9481 29.4838C38.9481 27.5751 40.5203 26.0231 42.4534 26.0231C44.3867 26.0231 45.9588 27.5752 45.9588 29.4838C45.9588 31.3923 44.3867 32.9444 42.4534 32.9444Z" fill="black"/>
<path d="M52.8297 19.4987L44.9426 7.38621C44.7814 7.13872 44.5036 6.98907 44.2055 6.98907H34.5658C34.0811 6.98907 33.6895 7.37668 33.6895 7.85422V29.4836C33.6895 29.9621 34.0811 30.3488 34.5658 30.3488H38.0711V28.6184H35.4421V8.71946H43.7271L51.2164 20.2211V28.6186H46.8346V30.3489H52.0927C52.5773 30.3489 52.969 29.9622 52.969 29.4837V19.9667C52.9691 19.8015 52.9209 19.6379 52.8297 19.4987Z" fill="black"/>
<path d="M38.948 18.2363V12.1801H45.9588V10.4496H38.0716C37.587 10.4496 37.1953 10.8373 37.1953 11.3148V19.1015C37.1953 19.5799 37.587 19.9666 38.0716 19.9666H51.2169V18.2362H38.948V18.2363Z" fill="black"/>
<path d="M34.5663 0.932861H1.26499C0.781283 0.932861 0.388672 1.32047 0.388672 1.79801V29.4838C0.388672 29.9622 0.781283 30.3489 1.26499 30.3489H8.27582V28.6185H2.14141V2.66315H33.69V28.6185H17.0393V30.3489H34.5663C35.0509 30.3489 35.4426 29.9622 35.4426 29.4838V1.79801C35.4426 1.32047 35.0509 0.932861 34.5663 0.932861Z" fill="black"/>
<path d="M6.52368 25.158H1.26562V26.888H6.52368V25.158Z" fill="black"/>
<path d="M33.6909 25.158H18.793V26.888H33.6909V25.158Z" fill="black"/>
<path d="M52.0933 25.158H48.5879V26.888H52.0933V25.158Z" fill="black"/>
<path d="M34.5669 4.39355H3.89453V6.1236H34.5669V4.39355Z" fill="black"/>
<path d="M13.5339 28.6186H11.7812V30.3499H13.5339V28.6186Z" fill="black"/>
<path d="M43.3308 28.6186H41.5781V30.3499H43.3308V28.6186Z" fill="black"/>
</svg>
