<svg width="31" height="35" viewBox="0 0 31 35" fill="none" xmlns="http://www.w3.org/2000/svg">
<path d="M24.6146 24.6249L21.4418 23.581L20.3028 21.3319C21.3289 20.3008 22.0414 18.9365 22.2816 17.5135L22.4237 16.6729H23.6385C24.7428 16.6729 25.6411 15.786 25.6411 14.6958V10.544C25.6411 5.09315 21.1493 0.658569 15.6281 0.658569C10.0928 0.658569 5.61516 5.08044 5.61516 10.544V14.6958C5.61516 15.5549 6.17328 16.2875 6.95022 16.5595V17.3319C6.95022 18.4221 7.84859 19.309 8.95282 19.309H9.53905C9.82842 19.9296 10.203 20.5044 10.6588 21.0208C10.7533 21.128 10.8519 21.232 10.9529 21.3332L9.81447 23.581L6.64162 24.625C2.95251 25.8394 0.274902 29.6736 0.274902 33.7417C0.274902 34.1056 0.573757 34.4007 0.942435 34.4007H30.3139C30.6825 34.4007 30.9814 34.1056 30.9814 33.7417C30.9814 29.6736 28.3038 25.8394 24.6146 24.6249ZM24.3061 14.6958C24.3061 15.0592 24.0066 15.3548 23.6385 15.3548H22.6197C22.7894 14.0572 22.9025 12.6764 22.948 11.3163C22.9493 11.278 22.9504 11.2407 22.9516 11.203H24.3061V14.6958ZM7.61776 15.3548C7.24968 15.3548 6.95022 15.0592 6.95022 14.6958V11.203H8.30518C8.30738 11.2717 8.30972 11.3408 8.31232 11.4103C8.31239 11.4127 8.31252 11.415 8.31259 11.4174C8.31259 11.4176 8.31259 11.4178 8.31259 11.418C8.35932 12.7408 8.47093 14.0858 8.63674 15.3548H7.61776V15.3548ZM8.95282 17.991C8.58474 17.991 8.28529 17.6953 8.28529 17.3319V16.6729H8.83253L8.97458 17.5138C9.00169 17.6736 9.03499 17.8328 9.07351 17.991H8.95282ZM8.28642 9.88493H6.97559C7.3137 5.46807 11.0473 1.97662 15.6281 1.97662C20.1886 1.97662 23.9387 5.46761 24.2806 9.88493H22.9699C22.9219 6.24533 19.9198 3.29467 16.2257 3.29467H15.0308C11.3367 3.29467 8.33442 6.24533 8.28642 9.88493ZM15.0307 4.61272H16.2256C19.2167 4.61272 21.6377 7.02812 21.6359 9.97785C21.6359 10.1853 21.6343 10.3658 21.6307 10.5301C21.6307 10.5322 21.6307 10.5344 21.6307 10.5366L20.7957 10.4188C18.5274 10.099 16.3857 9.04184 14.7651 7.44186C14.6399 7.31829 14.4701 7.24883 14.2931 7.24883C12.5004 7.24883 10.7843 8.05521 9.64986 9.41755C9.92942 6.73406 12.2273 4.61272 15.0307 4.61272ZM10.4574 17.991C10.1233 16.8935 9.74091 13.6642 9.6564 11.5949L10.5548 10.4122C11.38 9.32641 12.6637 8.65176 14.0293 8.57433C15.8261 10.2625 18.1505 11.3773 20.6069 11.7235L21.5897 11.8622C21.524 13.2386 21.3897 14.6198 21.1974 15.89C21.1974 15.8904 21.1973 15.8909 21.1972 15.8914C21.1361 16.2998 21.0879 16.5626 20.9648 17.2967C20.6113 19.3901 19.0291 21.2831 16.9404 21.7987C16.0809 22.0105 15.1753 22.0105 14.3162 21.7987C13.012 21.4768 11.8162 20.5859 11.0445 19.309H12.4053C12.6809 20.076 13.4228 20.6271 14.2931 20.6271H15.6281C16.7346 20.6271 17.6307 19.7424 17.6307 18.65C17.6307 17.5598 16.7324 16.6729 15.6281 16.6729H14.2931C13.4035 16.6729 12.6724 17.2402 12.4042 17.991H10.4574ZM14.2369 23.1324C14.6948 23.2276 15.1616 23.2763 15.6281 23.2763C15.9934 23.2763 16.3586 23.2462 16.7198 23.1876L15.5402 24.4192L14.2369 23.1324ZM14.6225 25.3772L12.5052 27.5878C11.9223 26.4863 11.4215 25.3399 11.0107 24.1663L11.8058 22.5964L14.6225 25.3772ZM19.3374 22.3731L20.2455 24.1662C19.834 25.3418 19.333 26.4886 18.7507 27.5887L16.4846 25.3515L19.3374 22.3731ZM13.6255 18.65C13.6255 18.2861 13.9245 17.991 14.2931 17.991H15.6281C15.9962 17.991 16.2957 18.2866 16.2957 18.65C16.2957 19.0139 15.9967 19.309 15.6281 19.309H14.2931C13.925 19.309 13.6255 19.0134 13.6255 18.65ZM1.63667 33.0826C1.90121 29.8179 4.102 26.8504 7.06384 25.8753L9.87375 24.9509C10.3885 26.3562 11.0263 27.7222 11.7737 29.0197C11.775 29.0219 11.7762 29.0242 11.7775 29.0263C11.7775 29.0264 11.7776 29.0264 11.7776 29.0265C12.3237 29.9747 12.9383 30.9014 13.6047 31.7811L14.4259 33.0826H1.63667ZM15.6281 32.4952L14.7228 31.0603C14.7127 31.0442 14.7019 31.0286 14.6904 31.0134C14.1498 30.3016 13.6456 29.5571 13.1863 28.795L15.5669 26.3096L18.0754 28.7861C17.6131 29.5536 17.1071 30.3012 16.566 31.0133C16.5333 31.0563 16.5797 30.9885 15.6281 32.4952ZM16.8304 33.0826L17.6515 31.7812C18.3208 30.8981 18.9399 29.964 19.4915 29.0046C19.4948 28.9988 19.498 28.9929 19.5013 28.9871C19.5017 28.9863 19.5021 28.9857 19.5025 28.985C20.2405 27.6999 20.8715 26.3458 21.3825 24.9509L24.1924 25.8753C27.1543 26.8504 29.3551 29.8179 29.6196 33.0826H16.8304Z" fill="black"/>
<path d="M22.9713 26.7559C22.6028 26.7559 22.3037 27.051 22.3037 27.4146C22.3037 27.7782 22.6028 28.0732 22.9713 28.0732C23.3397 28.0732 23.6388 27.7782 23.6388 27.4146C23.6388 27.051 23.3397 26.7559 22.9713 26.7559Z" fill="black"/>
<path d="M27.6136 30.4158C27.1675 29.5341 26.5141 28.7508 25.724 28.1506C25.4317 27.9285 25.0127 27.9825 24.7879 28.2711C24.5631 28.5596 24.6178 28.9734 24.9099 29.1954C25.541 29.6748 26.0629 30.3005 26.4192 31.0049C26.5843 31.3311 26.9855 31.4624 27.3147 31.3C27.6445 31.1374 27.7783 30.7415 27.6136 30.4158Z" fill="black"/>
</svg>
